<svg width="128" height="128" viewBox="0 0 128 128" fill="none" xmlns="http://www.w3.org/2000/svg">
<circle cx="64" cy="64" r="62.2222" fill="#E9FAEE" stroke="#3FC957" stroke-width="3.55556"/>
<path d="M36.5335 57.3557H31.0478C30.3811 57.3557 29.8097 57.1176 29.3335 56.6414C28.8573 56.1461 28.6192 55.5652 28.6192 54.8985C28.6192 54.2319 28.8573 53.6509 29.3335 53.1557C29.8097 52.6604 30.3811 52.4128 31.0478 52.4128H36.5335C37.2002 52.4128 37.7811 52.6604 38.2764 53.1557C38.7906 53.6319 39.0478 54.2128 39.0478 54.8985C39.0478 55.5652 38.7906 56.1461 38.2764 56.6414C37.7811 57.1176 37.2002 57.3557 36.5335 57.3557ZM42.3906 38.3557L38.5049 34.4414C38.0287 33.9652 37.7906 33.3938 37.7906 32.7271C37.7906 32.0604 38.0287 31.4795 38.5049 30.9842C39.0002 30.508 39.5906 30.2699 40.2764 30.2699C40.9621 30.2699 41.5335 30.508 41.9906 30.9842L45.8478 34.8985C46.324 35.3747 46.5621 35.9461 46.5621 36.6128C46.5811 37.2795 46.343 37.8604 45.8478 38.3557C45.3716 38.8319 44.7906 39.0699 44.1049 39.0699C43.4383 39.0509 42.8668 38.8128 42.3906 38.3557ZM59.9621 29.0414V23.5557C59.9621 22.889 60.2002 22.308 60.6764 21.8128C61.1716 21.3176 61.7525 21.0699 62.4192 21.0699C63.0859 21.0699 63.6668 21.3176 64.1621 21.8128C64.6573 22.308 64.9049 22.889 64.9049 23.5557V29.0414C64.9049 29.708 64.6573 30.289 64.1621 30.7842C63.6859 31.2604 63.1049 31.4985 62.4192 31.4985C61.7525 31.4985 61.1716 31.2604 60.6764 30.7842C60.2002 30.289 59.9621 29.708 59.9621 29.0414ZM78.9621 34.8985L82.8764 30.9842C83.3525 30.508 83.924 30.2699 84.5906 30.2699C85.2573 30.2699 85.8383 30.508 86.3335 30.9842C86.8097 31.4795 87.0478 32.0604 87.0478 32.7271C87.0478 33.3938 86.8097 33.9652 86.3335 34.4414L82.4192 38.3557C81.9621 38.8319 81.3906 39.0699 80.7049 39.0699C80.0383 39.0699 79.4573 38.8319 78.9621 38.3557C78.4859 37.8604 78.2478 37.2795 78.2478 36.6128C78.2478 35.9461 78.4859 35.3747 78.9621 34.8985ZM93.7335 57.3557H88.2478C87.5811 57.3557 87.0002 57.1176 86.5049 56.6414C86.0287 56.1461 85.7906 55.5652 85.7906 54.8985C85.7906 54.2128 86.0287 53.6319 86.5049 53.1557C87.0002 52.6604 87.5811 52.4128 88.2478 52.4128H93.7335C94.4002 52.4128 94.9811 52.6604 95.4764 53.1557C95.9716 53.6509 96.2192 54.2319 96.2192 54.8985C96.2192 55.5652 95.9716 56.1461 95.4764 56.6414C94.9811 57.1176 94.4002 57.3557 93.7335 57.3557ZM62.4192 36.8128C64.9335 36.8128 67.2859 37.2414 69.4764 38.0985C71.6668 38.9557 73.5811 40.1461 75.2192 41.6699C76.8764 43.1747 78.1621 44.9366 79.0764 46.9557C80.0097 48.9747 80.4764 51.1557 80.4764 53.4985C80.4764 55.5557 80.2573 57.3842 79.8192 58.9842C79.4002 60.5842 78.8573 62.1461 78.1906 63.6699C77.524 65.1938 76.8192 66.8699 76.0764 68.6985C75.3335 70.508 74.6478 72.6604 74.0192 75.1557C73.3906 77.6509 72.8954 80.689 72.5335 84.2699C72.4954 84.7652 72.3335 85.1652 72.0478 85.4699C71.7811 85.7557 71.3811 85.8985 70.8478 85.8985H53.9906C53.4573 85.8985 53.0478 85.7557 52.7621 85.4699C52.4954 85.1652 52.3335 84.7652 52.2764 84.2699C51.9335 80.689 51.4478 77.6509 50.8192 75.1557C50.1906 72.6604 49.5049 70.508 48.7621 68.6985C48.0192 66.8699 47.3144 65.1938 46.6478 63.6699C45.9811 62.1461 45.4383 60.5842 45.0192 58.9842C44.6002 57.3842 44.3906 55.5557 44.3906 53.4985C44.3906 51.1557 44.8478 48.9747 45.7621 46.9557C46.6764 44.9366 47.9525 43.1747 49.5906 41.6699C51.2478 40.1461 53.1621 38.9557 55.3335 38.0985C57.524 37.2414 59.8859 36.8128 62.4192 36.8128ZM53.9049 91.7271C53.4478 91.7271 53.0573 91.5747 52.7335 91.2699C52.4287 90.9461 52.2764 90.5557 52.2764 90.0985C52.2764 89.6223 52.4287 89.2319 52.7335 88.9271C53.0573 88.6223 53.4478 88.4699 53.9049 88.4699H70.9335C71.4097 88.4699 71.8002 88.6223 72.1049 88.9271C72.4287 89.2319 72.5906 89.6223 72.5906 90.0985C72.5906 90.5557 72.4287 90.9461 72.1049 91.2699C71.8002 91.5747 71.4097 91.7271 70.9335 91.7271H53.9049ZM62.4192 99.5557C60.3049 99.5557 58.4668 99.0699 56.9049 98.0985C55.3621 97.1271 54.543 95.8604 54.4478 94.2985H70.3906C70.2954 95.8604 69.4668 97.1271 67.9049 98.0985C66.343 99.0699 64.5144 99.5557 62.4192 99.5557Z" fill="url(#paint0_linear_427_2977)"/>
<defs>
<linearGradient id="paint0_linear_427_2977" x1="62.8335" y1="35.5557" x2="62.8335" y2="105.556" gradientUnits="userSpaceOnUse">
<stop stop-color="#3FC957"/>
<stop offset="1" stop-color="#1F632B"/>
</linearGradient>
</defs>
</svg>
