<svg width="276" height="289" viewBox="0 0 276 289" fill="none" xmlns="http://www.w3.org/2000/svg">
<path d="M241.381 72.2488V216.749C241.381 219.942 240.17 223.005 238.014 225.264C235.859 227.522 232.935 228.79 229.887 228.79H45.9775C42.929 228.79 40.0054 227.522 37.8498 225.264C35.6942 223.005 34.4832 219.942 34.4832 216.749V180.624C43.6286 180.624 52.3995 176.818 58.8663 170.043C65.3331 163.268 68.9661 154.08 68.9661 144.499C68.9661 134.918 65.3331 125.729 58.8663 118.955C52.3995 112.18 43.6286 108.374 34.4832 108.374V72.2488C34.4832 69.0552 35.6942 65.9923 37.8498 63.7341C40.0054 61.4758 42.929 60.2072 45.9775 60.2072H229.887C232.935 60.2072 235.859 61.4758 238.014 63.7341C240.17 65.9923 241.381 69.0552 241.381 72.2488Z" fill="#3FC95B"/>
<path d="M149.426 60.2072V78.2697M149.426 120.415V168.582M149.426 210.728V228.79M229.887 60.2072H45.9775C42.929 60.2072 40.0054 61.4758 37.8498 63.7341C35.6942 65.9923 34.4832 69.0552 34.4832 72.2488V108.374C43.6286 108.374 52.3995 112.18 58.8663 118.955C65.3331 125.729 68.9661 134.918 68.9661 144.499C68.9661 154.08 65.3331 163.268 58.8663 170.043C52.3995 176.818 43.6286 180.624 34.4832 180.624V216.749C34.4832 219.942 35.6942 223.005 37.8498 225.264C40.0054 227.522 42.929 228.79 45.9775 228.79H229.887C232.935 228.79 235.859 227.522 238.014 225.264C240.17 223.005 241.381 219.942 241.381 216.749V72.2488C241.381 69.0552 240.17 65.9923 238.014 63.7341C235.859 61.4758 232.935 60.2072 229.887 60.2072Z" stroke="black" stroke-opacity="0.5" stroke-width="22.6246" stroke-linecap="round" stroke-linejoin="round"/>
</svg>
