<svg width="347" height="70" viewBox="0 0 347 70" fill="none" xmlns="http://www.w3.org/2000/svg">
<mask id="mask0_499_1071" style="mask-type:alpha" maskUnits="userSpaceOnUse" x="0" y="0" width="347" height="70">
<rect width="347" height="70" fill="#D9D9D9"/>
</mask>
<g mask="url(#mask0_499_1071)">
<rect x="2.99906" y="2.00505" width="220.839" height="67.1624" rx="6.83008" fill="#FEFAEF" stroke="#FECD6F" stroke-width="2.27669"/>
<mask id="path-3-inside-1_499_1071" fill="white">
<path d="M224.977 8.83511C224.977 4.43427 228.545 0.866699 232.945 0.866699H338.812C343.212 0.866699 346.78 4.43428 346.78 8.83512V62.3374C346.78 66.7382 343.212 70.3058 338.812 70.3058H232.945C228.545 70.3058 224.977 66.7382 224.977 62.3374V8.83511Z"/>
</mask>
<path d="M224.977 8.83511C224.977 4.43427 228.545 0.866699 232.945 0.866699H338.812C343.212 0.866699 346.78 4.43428 346.78 8.83512V62.3374C346.78 66.7382 343.212 70.3058 338.812 70.3058H232.945C228.545 70.3058 224.977 66.7382 224.977 62.3374V8.83511Z" fill="#FEFAEF"/>
<path d="M224.977 8.83512C224.977 3.1769 229.564 -1.40999 235.222 -1.40999H338.812C344.47 -1.40999 349.057 3.1769 349.057 8.83512H344.503C344.503 5.69167 341.955 3.14339 338.812 3.14339H232.945C228.545 3.14339 224.977 5.69167 224.977 8.83512ZM349.057 62.3374C349.057 67.9956 344.47 72.5825 338.812 72.5825H235.222C229.564 72.5825 224.977 67.9956 224.977 62.3374C224.977 65.4808 228.545 68.0291 232.945 68.0291H338.812C341.955 68.0291 344.503 65.4808 344.503 62.3374H349.057ZM224.977 70.3058V0.866699V70.3058ZM338.812 -1.40999C344.47 -1.40999 349.057 3.1769 349.057 8.83512V62.3374C349.057 67.9956 344.47 72.5825 338.812 72.5825V68.0291C341.955 68.0291 344.503 65.4808 344.503 62.3374V8.83512C344.503 5.69167 341.955 3.14339 338.812 3.14339V-1.40999Z" fill="#FDCD6D" mask="url(#path-3-inside-1_499_1071)"/>
<path d="M233.295 1.22875C233.292 6.03772 229.39 9.93312 224.581 9.92938V9.92938C219.772 9.92564 215.877 6.02417 215.88 1.2152L215.881 0.866907L233.296 0.880457L233.295 1.22875Z" fill="white"/>
<path d="M215.977 70.1211C215.918 65.3125 219.768 61.3664 224.577 61.3073V61.3073C229.386 61.2482 233.332 65.0984 233.391 69.907L233.395 70.2553L215.981 70.4693L215.977 70.1211Z" fill="white"/>
<rect x="2.99906" y="2.00505" width="220.839" height="67.1624" rx="6.83008" fill="#FEFAEF" stroke="#FECD6F" stroke-width="2.27669"/>
<mask id="path-8-inside-2_499_1071" fill="white">
<path d="M224.977 8.83511C224.977 4.43427 228.545 0.866699 232.945 0.866699H338.812C343.212 0.866699 346.78 4.43428 346.78 8.83512V62.3374C346.78 66.7382 343.212 70.3058 338.812 70.3058H232.945C228.545 70.3058 224.977 66.7382 224.977 62.3374V8.83511Z"/>
</mask>
<path d="M224.977 8.83511C224.977 4.43427 228.545 0.866699 232.945 0.866699H338.812C343.212 0.866699 346.78 4.43428 346.78 8.83512V62.3374C346.78 66.7382 343.212 70.3058 338.812 70.3058H232.945C228.545 70.3058 224.977 66.7382 224.977 62.3374V8.83511Z" fill="#FEFAEF"/>
<path d="M224.977 8.83512C224.977 3.1769 229.564 -1.40999 235.222 -1.40999H338.812C344.47 -1.40999 349.057 3.1769 349.057 8.83512H344.503C344.503 5.69167 341.955 3.14339 338.812 3.14339H232.945C228.545 3.14339 224.977 5.69167 224.977 8.83512ZM349.057 62.3374C349.057 67.9956 344.47 72.5825 338.812 72.5825H235.222C229.564 72.5825 224.977 67.9956 224.977 62.3374C224.977 65.4808 228.545 68.0291 232.945 68.0291H338.812C341.955 68.0291 344.503 65.4808 344.503 62.3374H349.057ZM224.977 70.3058V0.866699V70.3058ZM338.812 -1.40999C344.47 -1.40999 349.057 3.1769 349.057 8.83512V62.3374C349.057 67.9956 344.47 72.5825 338.812 72.5825V68.0291C341.955 68.0291 344.503 65.4808 344.503 62.3374V8.83512C344.503 5.69167 341.955 3.14339 338.812 3.14339V-1.40999Z" fill="#FDCD6D" mask="url(#path-8-inside-2_499_1071)"/>
<path d="M233.295 1.22875C233.292 6.03772 229.39 9.93312 224.581 9.92938V9.92938C219.772 9.92564 215.877 6.02417 215.88 1.2152L215.881 0.866907L233.296 0.880457L233.295 1.22875Z" fill="white"/>
<path d="M215.977 70.1211C215.918 65.3125 219.768 61.3664 224.577 61.3073V61.3073C229.386 61.2482 233.332 65.0984 233.391 69.907L233.395 70.2553L215.981 70.4693L215.977 70.1211Z" fill="white"/>
<path d="M46.9501 31.6375L11.8679 3.77708L81.7396 3.41245L46.9501 31.6375Z" fill="#FBAF0D" fill-opacity="0.2"/>
<path d="M4.20579 42.0977L6.31099 4.43475L41.92 41.3418L4.20579 42.0977Z" fill="#FBAF0D" fill-opacity="0.1"/>
<path d="M3.85818 53.5383L15.1539 4.75604L53.0135 43.9957L3.85818 53.5383Z" fill="#FBAF0D" fill-opacity="0.1"/>
<path d="M18.3655 24.0151V22.8589H20.4999C21.0149 22.8589 21.4151 22.7274 21.7005 22.4643C21.9858 22.1975 22.1285 21.8232 22.1285 21.3415V21.3304C22.1285 20.845 21.9858 20.4707 21.7005 20.2076C21.4151 19.9445 21.0149 19.813 20.4999 19.813H18.3655V18.6457H20.85C21.3948 18.6457 21.8709 18.7569 22.2785 18.9792C22.6861 19.2015 23.0048 19.5147 23.2346 19.9186C23.4643 20.3188 23.5792 20.7875 23.5792 21.3248V21.3359C23.5792 21.8695 23.4643 22.3383 23.2346 22.7422C23.0048 23.1424 22.6861 23.4555 22.2785 23.6816C21.8709 23.9039 21.3948 24.0151 20.85 24.0151H18.3655ZM17.6484 26.6664V18.6457H19.0825V26.6664H17.6484ZM25.0188 26.6664V20.5911H26.4028V21.5249H26.4973C26.6011 21.1988 26.7863 20.945 27.0531 20.7634C27.3236 20.5819 27.659 20.4911 28.0592 20.4911C28.1629 20.4911 28.2649 20.4985 28.3649 20.5133C28.4687 20.5244 28.5539 20.5392 28.6206 20.5578V21.7973C28.5094 21.7713 28.3964 21.7528 28.2815 21.7417C28.1704 21.7269 28.0536 21.7195 27.9314 21.7195C27.6238 21.7195 27.3551 21.7769 27.1254 21.8918C26.8956 22.0066 26.7178 22.1715 26.5918 22.3865C26.4658 22.5977 26.4028 22.8478 26.4028 23.1368V26.6664H25.0188ZM32.2001 26.7887C31.5961 26.7887 31.0774 26.6608 30.6438 26.4051C30.214 26.1495 29.8823 25.7863 29.6489 25.3157C29.4154 24.8451 29.2987 24.2874 29.2987 23.6427V23.6371C29.2987 22.9997 29.4136 22.4439 29.6433 21.9696C29.8768 21.4953 30.2066 21.1284 30.6327 20.869C31.0588 20.6059 31.5591 20.4744 32.1334 20.4744C32.7115 20.4744 33.2081 20.6022 33.6231 20.8579C34.0418 21.1099 34.3642 21.4638 34.5902 21.9196C34.8163 22.3754 34.9293 22.909 34.9293 23.5204V23.9762H29.9935V23.0479H34.2512L33.5953 23.915V23.3647C33.5953 22.9608 33.5341 22.6255 33.4119 22.3587C33.2896 22.0919 33.1191 21.8918 32.9005 21.7584C32.6856 21.625 32.4355 21.5583 32.1501 21.5583C31.8648 21.5583 31.611 21.6287 31.3886 21.7695C31.17 21.9066 30.9958 22.1104 30.8661 22.3809C30.7402 22.6477 30.6772 22.9757 30.6772 23.3647V23.9206C30.6772 24.2948 30.7402 24.6154 30.8661 24.8822C30.9921 25.1453 31.17 25.3491 31.3997 25.4936C31.6332 25.6344 31.9093 25.7048 32.2279 25.7048C32.4762 25.7048 32.6893 25.6696 32.8671 25.5992C33.0487 25.5251 33.1951 25.438 33.3063 25.3379C33.4174 25.2342 33.4952 25.136 33.5397 25.0433L33.5564 25.0044H34.8681L34.857 25.0545C34.8089 25.2509 34.7199 25.451 34.5902 25.6548C34.4642 25.8549 34.2919 26.042 34.0733 26.2162C33.8584 26.3866 33.5953 26.5256 33.284 26.633C32.9728 26.7368 32.6115 26.7887 32.2001 26.7887ZM36.3133 26.6664V20.5911H37.6973V21.536H37.7918C37.9215 21.1988 38.1309 20.9376 38.4199 20.7523C38.7127 20.567 39.0591 20.4744 39.4593 20.4744C39.7335 20.4744 39.98 20.5189 40.1986 20.6078C40.4209 20.6967 40.6118 20.8227 40.7711 20.9858C40.9304 21.1488 41.0527 21.3434 41.1379 21.5694H41.238C41.338 21.3508 41.477 21.1599 41.6549 20.9969C41.8364 20.8301 42.0477 20.7023 42.2885 20.6134C42.5331 20.5207 42.7962 20.4744 43.0778 20.4744C43.4854 20.4744 43.8337 20.5559 44.1228 20.719C44.4155 20.8783 44.6397 21.1081 44.7953 21.4082C44.9547 21.7084 45.0343 22.0678 45.0343 22.4865V26.6664H43.6503V22.8256C43.6503 22.5588 43.6095 22.3383 43.528 22.1641C43.4502 21.99 43.3298 21.8584 43.1667 21.7695C43.0037 21.6806 42.798 21.6361 42.5498 21.6361C42.3089 21.6361 42.0995 21.6917 41.9217 21.8028C41.7438 21.9103 41.6048 22.0567 41.5048 22.242C41.4084 22.4272 41.3603 22.6366 41.3603 22.87V26.6664H39.9763V22.7255C39.9763 22.4995 39.9318 22.3049 39.8429 22.1419C39.7576 21.9789 39.6316 21.8547 39.4649 21.7695C39.3018 21.6806 39.1073 21.6361 38.8813 21.6361C38.6552 21.6361 38.4514 21.6954 38.2698 21.814C38.092 21.9288 37.9512 22.0882 37.8474 22.292C37.7474 22.4921 37.6973 22.7181 37.6973 22.9701V26.6664H36.3133ZM46.6796 26.6664V20.5911H48.0581V26.6664H46.6796ZM47.3744 19.574C47.1483 19.574 46.9538 19.4943 46.7908 19.3349C46.6277 19.1756 46.5462 18.9848 46.5462 18.7624C46.5462 18.5327 46.6277 18.34 46.7908 18.1844C46.9538 18.025 47.1483 17.9454 47.3744 17.9454C47.6004 17.9454 47.7931 18.025 47.9525 18.1844C48.1155 18.34 48.197 18.5327 48.197 18.7624C48.197 18.9848 48.1155 19.1756 47.9525 19.3349C47.7931 19.4943 47.6004 19.574 47.3744 19.574ZM51.7766 26.7887C51.3245 26.7887 50.9447 26.7016 50.6371 26.5274C50.3296 26.3496 50.098 26.092 49.9423 25.7548C49.7867 25.4139 49.7089 25.0026 49.7089 24.5209V20.5911H51.0929V24.204C51.0929 24.6746 51.1856 25.0285 51.3708 25.2657C51.5561 25.5028 51.8581 25.6214 52.2768 25.6214C52.4992 25.6214 52.6956 25.5881 52.866 25.5214C53.0402 25.451 53.1847 25.3509 53.2996 25.2212C53.4144 25.0915 53.5015 24.9359 53.5608 24.7543C53.6201 24.569 53.6497 24.3615 53.6497 24.1318V20.5911H55.0338V26.6664H53.6497V25.7437H53.5553C53.4626 25.9586 53.3329 26.1458 53.1662 26.3051C52.9994 26.4607 52.7993 26.5812 52.5659 26.6664C52.3324 26.7479 52.0693 26.7887 51.7766 26.7887ZM56.7235 26.6664V20.5911H58.1075V21.536H58.202C58.3317 21.1988 58.5411 20.9376 58.8301 20.7523C59.1228 20.567 59.4693 20.4744 59.8695 20.4744C60.1437 20.4744 60.3901 20.5189 60.6088 20.6078C60.8311 20.6967 61.0219 20.8227 61.1813 20.9858C61.3406 21.1488 61.4629 21.3434 61.5481 21.5694H61.6482C61.7482 21.3508 61.8872 21.1599 62.0651 20.9969C62.2466 20.8301 62.4578 20.7023 62.6987 20.6134C62.9433 20.5207 63.2064 20.4744 63.488 20.4744C63.8956 20.4744 64.2439 20.5559 64.533 20.719C64.8257 20.8783 65.0499 21.1081 65.2055 21.4082C65.3649 21.7084 65.4445 22.0678 65.4445 22.4865V26.6664H64.0605V22.8256C64.0605 22.5588 64.0197 22.3383 63.9382 22.1641C63.8604 21.99 63.74 21.8584 63.5769 21.7695C63.4139 21.6806 63.2082 21.6361 62.9599 21.6361C62.7191 21.6361 62.5097 21.6917 62.3319 21.8028C62.154 21.9103 62.015 22.0567 61.915 22.242C61.8186 22.4272 61.7705 22.6366 61.7705 22.87V26.6664H60.3864V22.7255C60.3864 22.4995 60.342 22.3049 60.253 22.1419C60.1678 21.9789 60.0418 21.8547 59.8751 21.7695C59.712 21.6806 59.5175 21.6361 59.2915 21.6361C59.0654 21.6361 58.8616 21.6954 58.68 21.814C58.5022 21.9288 58.3614 22.0882 58.2576 22.292C58.1576 22.4921 58.1075 22.7181 58.1075 22.9701V26.6664H56.7235ZM72.1201 26.7887C71.668 26.7887 71.2882 26.7016 70.9806 26.5274C70.6731 26.3496 70.4415 26.092 70.2858 25.7548C70.1302 25.4139 70.0524 25.0026 70.0524 24.5209V20.5911H71.4364V24.204C71.4364 24.6746 71.529 25.0285 71.7143 25.2657C71.8996 25.5028 72.2016 25.6214 72.6203 25.6214C72.8427 25.6214 73.0391 25.5881 73.2095 25.5214C73.3837 25.451 73.5282 25.3509 73.6431 25.2212C73.7579 25.0915 73.845 24.9359 73.9043 24.7543C73.9636 24.569 73.9932 24.3615 73.9932 24.1318V20.5911H75.3773V26.6664H73.9932V25.7437H73.8987C73.8061 25.9586 73.6764 26.1458 73.5097 26.3051C73.3429 26.4607 73.1428 26.5812 72.9094 26.6664C72.6759 26.7479 72.4128 26.7887 72.1201 26.7887ZM79.3626 26.7887C78.8475 26.7887 78.4028 26.7164 78.0286 26.5719C77.658 26.4237 77.3653 26.2199 77.1504 25.9605C76.9354 25.6974 76.8076 25.3935 76.7668 25.0489V25.0378H78.1397L78.1453 25.0489C78.2194 25.2601 78.3584 25.4324 78.5622 25.5658C78.766 25.6992 79.0402 25.7659 79.3848 25.7659C79.6146 25.7659 79.8165 25.7344 79.9907 25.6714C80.1648 25.6047 80.3019 25.514 80.402 25.3991C80.502 25.2842 80.5521 25.1508 80.5521 24.9989V24.9878C80.5521 24.8099 80.4798 24.6617 80.3353 24.5431C80.1908 24.4208 79.9518 24.3226 79.6183 24.2485L78.6344 24.0262C78.2491 23.9409 77.9304 23.8224 77.6784 23.6704C77.4264 23.5185 77.2374 23.3314 77.1115 23.1091C76.9892 22.8867 76.928 22.6273 76.928 22.3309V22.3253C76.928 21.9585 77.0299 21.6361 77.2337 21.3582C77.4412 21.0803 77.7284 20.8635 78.0953 20.7079C78.4621 20.5522 78.8846 20.4744 79.3626 20.4744C79.8554 20.4744 80.2797 20.5485 80.6354 20.6967C80.9912 20.845 81.2691 21.0488 81.4692 21.3082C81.6693 21.5675 81.7842 21.8621 81.8138 22.1919V22.203H80.5132L80.5076 22.1864C80.4557 21.9937 80.3316 21.8306 80.1352 21.6972C79.9425 21.5601 79.6831 21.4916 79.357 21.4916C79.1532 21.4916 78.9698 21.5231 78.8067 21.5861C78.6474 21.6491 78.5214 21.738 78.4288 21.8529C78.3398 21.964 78.2954 22.0956 78.2954 22.2475V22.2531C78.2954 22.3716 78.325 22.4754 78.3843 22.5643C78.4473 22.6533 78.5455 22.7311 78.6789 22.7978C78.8123 22.8645 78.9883 22.9238 79.2069 22.9757L80.1908 23.1924C80.7874 23.3258 81.2283 23.5241 81.5137 23.7872C81.799 24.0503 81.9416 24.4041 81.9416 24.8488V24.8599C81.9416 25.2453 81.8305 25.5825 81.6081 25.8715C81.3858 26.1606 81.0801 26.3866 80.691 26.5497C80.3019 26.709 79.8591 26.7887 79.3626 26.7887ZM85.9381 26.7887C85.3341 26.7887 84.8153 26.6608 84.3818 26.4051C83.9519 26.1495 83.6203 25.7863 83.3868 25.3157C83.1534 24.8451 83.0366 24.2874 83.0366 23.6427V23.6371C83.0366 22.9997 83.1515 22.4439 83.3813 21.9696C83.6147 21.4953 83.9445 21.1284 84.3706 20.869C84.7968 20.6059 85.297 20.4744 85.8714 20.4744C86.4495 20.4744 86.946 20.6022 87.361 20.8579C87.7797 21.1099 88.1021 21.4638 88.3282 21.9196C88.5542 22.3754 88.6672 22.909 88.6672 23.5204V23.9762H83.7314V23.0479H87.9891L87.3332 23.915V23.3647C87.3332 22.9608 87.2721 22.6255 87.1498 22.3587C87.0275 22.0919 86.8571 21.8918 86.6384 21.7584C86.4235 21.625 86.1734 21.5583 85.8881 21.5583C85.6027 21.5583 85.3489 21.6287 85.1266 21.7695C84.9079 21.9066 84.7338 22.1104 84.6041 22.3809C84.4781 22.6477 84.4151 22.9757 84.4151 23.3647V23.9206C84.4151 24.2948 84.4781 24.6154 84.6041 24.8822C84.7301 25.1453 84.9079 25.3491 85.1377 25.4936C85.3711 25.6344 85.6472 25.7048 85.9659 25.7048C86.2141 25.7048 86.4272 25.6696 86.6051 25.5992C86.7867 25.5251 86.933 25.438 87.0442 25.3379C87.1554 25.2342 87.2332 25.136 87.2776 25.0433L87.2943 25.0044H88.6061L88.595 25.0545C88.5468 25.2509 88.4579 25.451 88.3282 25.6548C88.2022 25.8549 88.0299 26.042 87.8112 26.2162C87.5963 26.3866 87.3332 26.5256 87.022 26.633C86.7107 26.7368 86.3494 26.7887 85.9381 26.7887ZM90.0512 26.6664V20.5911H91.4353V21.5249H91.5298C91.6335 21.1988 91.8188 20.945 92.0856 20.7634C92.3561 20.5819 92.6915 20.4911 93.0917 20.4911C93.1954 20.4911 93.2973 20.4985 93.3974 20.5133C93.5011 20.5244 93.5863 20.5392 93.653 20.5578V21.7973C93.5419 21.7713 93.4289 21.7528 93.314 21.7417C93.2028 21.7269 93.0861 21.7195 92.9638 21.7195C92.6563 21.7195 92.3876 21.7769 92.1579 21.8918C91.9281 22.0066 91.7502 22.1715 91.6243 22.3865C91.4983 22.5977 91.4353 22.8478 91.4353 23.1368V26.6664H90.0512ZM96.938 26.7887C96.4229 26.7887 95.9783 26.7164 95.604 26.5719C95.2335 26.4237 94.9407 26.2199 94.7258 25.9605C94.5109 25.6974 94.383 25.3935 94.3423 25.0489V25.0378H95.7152L95.7207 25.0489C95.7949 25.2601 95.9338 25.4324 96.1376 25.5658C96.3414 25.6992 96.6156 25.7659 96.9603 25.7659C97.19 25.7659 97.3919 25.7344 97.5661 25.6714C97.7403 25.6047 97.8774 25.514 97.9774 25.3991C98.0775 25.2842 98.1275 25.1508 98.1275 24.9989V24.9878C98.1275 24.8099 98.0552 24.6617 97.9107 24.5431C97.7662 24.4208 97.5272 24.3226 97.1937 24.2485L96.2099 24.0262C95.8245 23.9409 95.5058 23.8224 95.2538 23.6704C95.0019 23.5185 94.8129 23.3314 94.6869 23.1091C94.5646 22.8867 94.5035 22.6273 94.5035 22.3309V22.3253C94.5035 21.9585 94.6054 21.6361 94.8092 21.3582C95.0167 21.0803 95.3039 20.8635 95.6707 20.7079C96.0376 20.5522 96.46 20.4744 96.938 20.4744C97.4309 20.4744 97.8551 20.5485 98.2109 20.6967C98.5666 20.845 98.8445 21.0488 99.0446 21.3082C99.2447 21.5675 99.3596 21.8621 99.3892 22.1919V22.203H98.0886L98.083 22.1864C98.0312 21.9937 97.907 21.8306 97.7106 21.6972C97.5179 21.5601 97.2585 21.4916 96.9325 21.4916C96.7287 21.4916 96.5452 21.5231 96.3822 21.5861C96.2228 21.6491 96.0969 21.738 96.0042 21.8529C95.9153 21.964 95.8708 22.0956 95.8708 22.2475V22.2531C95.8708 22.3716 95.9005 22.4754 95.9598 22.5643C96.0227 22.6533 96.1209 22.7311 96.2543 22.7978C96.3877 22.8645 96.5638 22.9238 96.7824 22.9757L97.7662 23.1924C98.3628 23.3258 98.8038 23.5241 99.0891 23.7872C99.3744 24.0503 99.5171 24.4041 99.5171 24.8488V24.8599C99.5171 25.2453 99.4059 25.5825 99.1836 25.8715C98.9613 26.1606 98.6555 26.3866 98.2665 26.5497C97.8774 26.709 97.4346 26.7887 96.938 26.7887ZM106.571 26.7887C105.967 26.7887 105.446 26.6627 105.009 26.4107C104.571 26.155 104.234 25.7919 103.997 25.3213C103.764 24.8507 103.647 24.2874 103.647 23.6315V23.6204C103.647 22.9719 103.765 22.4124 104.003 21.9418C104.24 21.4675 104.575 21.1043 105.009 20.8524C105.446 20.6004 105.967 20.4744 106.571 20.4744C107.175 20.4744 107.693 20.6004 108.127 20.8524C108.564 21.1043 108.901 21.4656 109.139 21.9362C109.376 22.4068 109.494 22.9682 109.494 23.6204V23.6315C109.494 24.2874 109.376 24.8507 109.139 25.3213C108.905 25.7919 108.57 26.155 108.132 26.4107C107.699 26.6627 107.178 26.7887 106.571 26.7887ZM106.571 25.6659C106.889 25.6659 107.16 25.5862 107.382 25.4269C107.608 25.2638 107.78 25.0322 107.899 24.7321C108.018 24.4282 108.077 24.0632 108.077 23.6371V23.626C108.077 23.1961 108.018 22.8311 107.899 22.531C107.78 22.2271 107.608 21.9955 107.382 21.8362C107.16 21.6731 106.889 21.5916 106.571 21.5916C106.252 21.5916 105.98 21.6731 105.754 21.8362C105.527 21.9955 105.355 22.2271 105.237 22.531C105.118 22.8311 105.059 23.1961 105.059 23.626V23.6371C105.059 24.0632 105.118 24.4282 105.237 24.7321C105.355 25.0359 105.526 25.2675 105.748 25.4269C105.974 25.5862 106.248 25.6659 106.571 25.6659ZM110.884 26.6664V20.5911H112.268V21.5249H112.362C112.507 21.1951 112.726 20.9376 113.018 20.7523C113.311 20.567 113.676 20.4744 114.113 20.4744C114.791 20.4744 115.31 20.6708 115.67 21.0636C116.029 21.4564 116.209 22.0141 116.209 22.7366V26.6664H114.825V23.059C114.825 22.5847 114.725 22.229 114.525 21.9918C114.328 21.7547 114.021 21.6361 113.602 21.6361C113.328 21.6361 113.091 21.6972 112.89 21.8195C112.69 21.9418 112.537 22.1141 112.429 22.3364C112.322 22.5588 112.268 22.8219 112.268 23.1257V26.6664H110.884ZM117.898 26.6664V18.24H119.283V26.6664H117.898ZM121.673 28.8008C121.587 28.8008 121.498 28.7989 121.406 28.7952C121.317 28.7915 121.23 28.786 121.145 28.7785V27.7169C121.2 27.7243 121.265 27.728 121.339 27.728C121.413 27.7317 121.485 27.7336 121.556 27.7336C121.841 27.7336 122.069 27.6706 122.24 27.5446C122.414 27.4223 122.538 27.2241 122.612 26.9499L122.684 26.6719L120.511 20.5911H122.023L123.624 25.9716L123.246 25.3379H123.724L123.357 25.9716L124.958 20.5911H126.414L124.235 26.7998C124.061 27.3037 123.861 27.7021 123.635 27.9948C123.409 28.2876 123.136 28.4951 122.818 28.6174C122.503 28.7396 122.121 28.8008 121.673 28.8008Z" fill="#BB9852"/>
<path d="M243.553 26.8665C242.93 26.8665 242.389 26.7701 241.93 26.5774C241.474 26.3848 241.115 26.1161 240.852 25.7715C240.589 25.4269 240.44 25.0248 240.407 24.5653L240.401 24.4875H241.791L241.797 24.5431C241.819 24.7691 241.908 24.9655 242.063 25.1323C242.223 25.299 242.434 25.4306 242.697 25.5269C242.96 25.6196 243.26 25.6659 243.597 25.6659C243.92 25.6659 244.205 25.6159 244.453 25.5158C244.702 25.4158 244.896 25.2787 245.037 25.1045C245.178 24.9266 245.248 24.7228 245.248 24.4931V24.4875C245.248 24.1985 245.135 23.9632 244.909 23.7816C244.683 23.5963 244.311 23.4481 243.792 23.3369L242.93 23.1591C242.108 22.9849 241.509 22.707 241.135 22.3253C240.765 21.9399 240.579 21.449 240.579 20.8524V20.8468C240.579 20.3688 240.705 19.9501 240.957 19.5906C241.213 19.2312 241.563 18.9514 242.008 18.7513C242.456 18.5475 242.969 18.4456 243.547 18.4456C244.14 18.4456 244.654 18.5457 245.087 18.7458C245.521 18.9422 245.862 19.2108 246.11 19.5517C246.358 19.8926 246.497 20.278 246.527 20.7079L246.532 20.7801H245.165L245.154 20.7134C245.12 20.5022 245.033 20.3188 244.893 20.1631C244.755 20.0038 244.572 19.8778 244.342 19.7852C244.113 19.6925 243.844 19.6462 243.536 19.6462C243.244 19.6462 242.982 19.6925 242.753 19.7852C242.523 19.8741 242.341 20.0001 242.208 20.1631C242.078 20.3262 242.013 20.5226 242.013 20.7523V20.7579C242.013 21.0395 242.123 21.2729 242.341 21.4582C242.564 21.6435 242.925 21.788 243.425 21.8918L244.287 22.0752C244.85 22.1938 245.308 22.3513 245.66 22.5477C246.012 22.7441 246.269 22.9886 246.432 23.2814C246.599 23.5704 246.682 23.9187 246.682 24.3263V24.3319C246.682 24.8507 246.554 25.299 246.299 25.677C246.047 26.055 245.686 26.3477 245.215 26.5552C244.748 26.7627 244.194 26.8665 243.553 26.8665ZM249.751 26.7664C249.369 26.7664 249.026 26.6923 248.722 26.5441C248.422 26.3959 248.185 26.1865 248.011 25.916C247.84 25.6418 247.755 25.3194 247.755 24.9489V24.9377C247.755 24.5783 247.844 24.2689 248.022 24.0095C248.2 23.7464 248.461 23.5407 248.806 23.3925C249.15 23.2443 249.569 23.1572 250.062 23.1313L252.307 22.9923V23.9039L250.256 24.0373C249.867 24.0595 249.58 24.141 249.395 24.2819C249.21 24.4227 249.117 24.6191 249.117 24.871V24.8822C249.117 25.1415 249.215 25.3435 249.411 25.488C249.612 25.6325 249.865 25.7048 250.173 25.7048C250.451 25.7048 250.699 25.6492 250.918 25.538C251.136 25.4269 251.309 25.2768 251.435 25.0878C251.561 24.8951 251.624 24.6784 251.624 24.4375V22.5143C251.624 22.2105 251.527 21.9789 251.335 21.8195C251.142 21.6565 250.857 21.575 250.479 21.575C250.164 21.575 249.906 21.6305 249.706 21.7417C249.506 21.8492 249.371 22.0029 249.3 22.203L249.295 22.2253H247.989L247.994 22.1753C248.039 21.8343 248.172 21.536 248.394 21.2804C248.617 21.0247 248.911 20.8264 249.278 20.6856C249.645 20.5448 250.067 20.4744 250.545 20.4744C251.072 20.4744 251.516 20.5559 251.879 20.719C252.242 20.8783 252.519 21.1118 252.708 21.4193C252.897 21.7232 252.991 22.0882 252.991 22.5143V26.6664H251.624V25.8326H251.529C251.418 26.0253 251.273 26.1921 251.096 26.3329C250.921 26.4737 250.721 26.5812 250.495 26.6553C250.269 26.7294 250.021 26.7664 249.751 26.7664ZM256.098 26.6664L253.936 20.5911H255.414L256.815 25.3157H256.915L258.31 20.5911H259.767L257.61 26.6664H256.098ZM263.291 26.7887C262.687 26.7887 262.168 26.6608 261.734 26.4051C261.304 26.1495 260.973 25.7863 260.739 25.3157C260.506 24.8451 260.389 24.2874 260.389 23.6427V23.6371C260.389 22.9997 260.504 22.4439 260.734 21.9696C260.967 21.4953 261.297 21.1284 261.723 20.869C262.149 20.6059 262.65 20.4744 263.224 20.4744C263.802 20.4744 264.299 20.6022 264.714 20.8579C265.132 21.1099 265.455 21.4638 265.681 21.9196C265.907 22.3754 266.02 22.909 266.02 23.5204V23.9762H261.084V23.0479H265.342L264.686 23.915V23.3647C264.686 22.9608 264.625 22.6255 264.502 22.3587C264.38 22.0919 264.21 21.8918 263.991 21.7584C263.776 21.625 263.526 21.5583 263.241 21.5583C262.955 21.5583 262.701 21.6287 262.479 21.7695C262.26 21.9066 262.086 22.1104 261.957 22.3809C261.831 22.6477 261.768 22.9757 261.768 23.3647V23.9206C261.768 24.2948 261.831 24.6154 261.957 24.8822C262.083 25.1453 262.26 25.3491 262.49 25.4936C262.724 25.6344 263 25.7048 263.318 25.7048C263.567 25.7048 263.78 25.6696 263.958 25.5992C264.139 25.5251 264.286 25.438 264.397 25.3379C264.508 25.2342 264.586 25.136 264.63 25.0433L264.647 25.0044H265.959L265.947 25.0545C265.899 25.2509 265.81 25.451 265.681 25.6548C265.555 25.8549 265.382 26.042 265.164 26.2162C264.949 26.3866 264.686 26.5256 264.374 26.633C264.063 26.7368 263.702 26.7887 263.291 26.7887Z" fill="#BB9852"/>
<path d="M240.724 46.0177V37.997H244.209C244.868 37.997 245.422 38.1026 245.871 38.3139C246.323 38.5251 246.666 38.8289 246.899 39.2254C247.133 39.6182 247.249 40.0907 247.249 40.6428V40.6539C247.249 41.143 247.131 41.5933 246.894 42.0046C246.656 42.4159 246.319 42.7179 245.882 42.9106L247.483 46.0177H245.193L243.82 43.2163C243.805 43.2163 243.788 43.2163 243.77 43.2163C243.755 43.2163 243.74 43.2163 243.725 43.2163H242.764V46.0177H240.724ZM242.764 41.8156H243.981C244.348 41.8156 244.637 41.7137 244.848 41.5099C245.059 41.3061 245.165 41.03 245.165 40.6817V40.6706C245.165 40.3334 245.057 40.061 244.843 39.8535C244.628 39.6423 244.337 39.5367 243.97 39.5367H242.764V41.8156ZM248.7 48.0632V39.8313H250.673V40.7706H250.779C250.879 40.552 251.014 40.3667 251.185 40.2148C251.355 40.0629 251.559 39.9462 251.796 39.8646C252.037 39.7794 252.302 39.7368 252.591 39.7368C253.106 39.7368 253.547 39.8646 253.914 40.1203C254.281 40.3723 254.564 40.7354 254.764 41.2097C254.964 41.6803 255.064 42.2492 255.064 42.9162V42.9273C255.064 43.6017 254.966 44.176 254.77 44.6504C254.577 45.1247 254.295 45.4878 253.925 45.7398C253.558 45.9881 253.113 46.1122 252.591 46.1122C252.309 46.1122 252.05 46.0696 251.813 45.9844C251.575 45.8954 251.368 45.7694 251.19 45.6064C251.016 45.4433 250.879 45.2488 250.779 45.0228H250.673V48.0632H248.7ZM251.863 44.5058C252.107 44.5058 252.318 44.4428 252.496 44.3169C252.678 44.1872 252.817 44.0056 252.913 43.7721C253.01 43.535 253.058 43.2534 253.058 42.9273V42.9162C253.058 42.5901 253.01 42.3103 252.913 42.0768C252.817 41.8397 252.678 41.6581 252.496 41.5321C252.318 41.4061 252.107 41.3431 251.863 41.3431C251.618 41.3431 251.405 41.4061 251.223 41.5321C251.046 41.6544 250.907 41.8341 250.807 42.0713C250.71 42.3047 250.662 42.5864 250.662 42.9162V42.9273C250.662 43.2534 250.712 43.535 250.812 43.7721C250.912 44.0093 251.051 44.1909 251.229 44.3169C251.411 44.4428 251.622 44.5058 251.863 44.5058ZM259.35 46.2178C258.716 46.2178 258.16 46.114 257.682 45.9065C257.208 45.699 256.832 45.4063 256.554 45.0283C256.276 44.6466 256.117 44.202 256.076 43.6943L256.07 43.6276H258.016L258.027 43.6888C258.049 43.8629 258.116 44.0204 258.227 44.1612C258.342 44.302 258.492 44.4132 258.677 44.4947C258.866 44.5762 259.089 44.617 259.344 44.617C259.596 44.617 259.813 44.5744 259.995 44.4892C260.18 44.4002 260.322 44.2798 260.423 44.1279C260.523 43.9759 260.573 43.8018 260.573 43.6054V43.5943C260.573 43.2682 260.452 43.0199 260.211 42.8495C259.97 42.679 259.628 42.5938 259.183 42.5938H258.316V41.2097H259.172C259.435 41.2097 259.659 41.1708 259.844 41.093C260.033 41.0152 260.178 40.9059 260.278 40.7651C260.382 40.6243 260.434 40.4612 260.434 40.2759V40.2648C260.434 40.0684 260.389 39.8998 260.3 39.759C260.215 39.6145 260.089 39.5052 259.922 39.4311C259.759 39.3533 259.563 39.3144 259.333 39.3144C259.1 39.3144 258.894 39.3551 258.716 39.4366C258.542 39.5145 258.403 39.6275 258.299 39.7757C258.199 39.9202 258.138 40.0907 258.116 40.2871L258.11 40.3426H256.259L256.265 40.2648C256.302 39.7609 256.45 39.3255 256.71 38.9586C256.973 38.5881 257.327 38.3027 257.771 38.1026C258.22 37.8988 258.74 37.7969 259.333 37.7969C259.944 37.7969 260.474 37.8896 260.923 38.0748C261.371 38.2564 261.718 38.5102 261.962 38.8363C262.207 39.1624 262.329 39.5441 262.329 39.9814V39.9925C262.329 40.3297 262.253 40.6243 262.101 40.8762C261.953 41.1245 261.753 41.3283 261.501 41.4877C261.253 41.647 260.976 41.7582 260.673 41.8212V41.8601C261.277 41.9194 261.757 42.1102 262.112 42.4326C262.468 42.755 262.646 43.1811 262.646 43.711V43.7221C262.646 44.2261 262.511 44.667 262.24 45.045C261.97 45.4193 261.588 45.7083 261.095 45.9121C260.602 46.1159 260.02 46.2178 259.35 46.2178ZM267.287 46.2345C266.59 46.2345 265.99 46.064 265.486 45.7231C264.982 45.3785 264.593 44.8912 264.319 44.2613C264.048 43.6276 263.913 42.8772 263.913 42.0101V41.999C263.913 41.1319 264.048 40.3834 264.319 39.7535C264.593 39.1235 264.982 38.6381 265.486 38.2972C265.99 37.9526 266.59 37.7803 267.287 37.7803C267.987 37.7803 268.588 37.9526 269.088 38.2972C269.592 38.6381 269.979 39.1235 270.25 39.7535C270.52 40.3834 270.655 41.1319 270.655 41.999V42.0101C270.655 42.8772 270.52 43.6276 270.25 44.2613C269.979 44.8912 269.592 45.3785 269.088 45.7231C268.588 46.064 267.987 46.2345 267.287 46.2345ZM267.287 44.667C267.569 44.667 267.806 44.5633 267.999 44.3558C268.195 44.1445 268.343 43.8425 268.443 43.4498C268.543 43.0533 268.593 42.5734 268.593 42.0101V41.999C268.593 41.4321 268.543 40.9522 268.443 40.5594C268.343 40.1666 268.195 39.8683 267.999 39.6645C267.806 39.457 267.569 39.3533 267.287 39.3533C267.009 39.3533 266.772 39.457 266.576 39.6645C266.383 39.8683 266.235 40.1666 266.131 40.5594C266.031 40.9522 265.981 41.4321 265.981 41.999V42.0101C265.981 42.5734 266.031 43.0533 266.131 43.4498C266.235 43.8425 266.383 44.1445 266.576 44.3558C266.772 44.5633 267.009 44.667 267.287 44.667ZM272.829 46.2011C272.499 46.2011 272.23 46.0992 272.023 45.8954C271.815 45.6879 271.711 45.4248 271.711 45.1061C271.711 44.7912 271.815 44.5318 272.023 44.328C272.23 44.1205 272.499 44.0167 272.829 44.0167C273.162 44.0167 273.431 44.1205 273.635 44.328C273.838 44.5318 273.94 44.7912 273.94 45.1061C273.94 45.4248 273.838 45.6879 273.635 45.8954C273.431 46.0992 273.162 46.2011 272.829 46.2011ZM278.459 46.2345C277.763 46.2345 277.162 46.064 276.658 45.7231C276.154 45.3785 275.765 44.8912 275.491 44.2613C275.221 43.6276 275.085 42.8772 275.085 42.0101V41.999C275.085 41.1319 275.221 40.3834 275.491 39.7535C275.765 39.1235 276.154 38.6381 276.658 38.2972C277.162 37.9526 277.763 37.7803 278.459 37.7803C279.16 37.7803 279.76 37.9526 280.26 38.2972C280.764 38.6381 281.151 39.1235 281.422 39.7535C281.692 40.3834 281.828 41.1319 281.828 41.999V42.0101C281.828 42.8772 281.692 43.6276 281.422 44.2613C281.151 44.8912 280.764 45.3785 280.26 45.7231C279.76 46.064 279.16 46.2345 278.459 46.2345ZM278.459 44.667C278.741 44.667 278.978 44.5633 279.171 44.3558C279.367 44.1445 279.515 43.8425 279.615 43.4498C279.715 43.0533 279.765 42.5734 279.765 42.0101V41.999C279.765 41.4321 279.715 40.9522 279.615 40.5594C279.515 40.1666 279.367 39.8683 279.171 39.6645C278.978 39.457 278.741 39.3533 278.459 39.3533C278.181 39.3533 277.944 39.457 277.748 39.6645C277.555 39.8683 277.407 40.1666 277.303 40.5594C277.203 40.9522 277.153 41.4321 277.153 41.999V42.0101C277.153 42.5734 277.203 43.0533 277.303 43.4498C277.407 43.8425 277.555 44.1445 277.748 44.3558C277.944 44.5633 278.181 44.667 278.459 44.667ZM286.586 46.2345C285.889 46.2345 285.289 46.064 284.785 45.7231C284.281 45.3785 283.892 44.8912 283.617 44.2613C283.347 43.6276 283.212 42.8772 283.212 42.0101V41.999C283.212 41.1319 283.347 40.3834 283.617 39.7535C283.892 39.1235 284.281 38.6381 284.785 38.2972C285.289 37.9526 285.889 37.7803 286.586 37.7803C287.286 37.7803 287.886 37.9526 288.386 38.2972C288.89 38.6381 289.278 39.1235 289.548 39.7535C289.819 40.3834 289.954 41.1319 289.954 41.999V42.0101C289.954 42.8772 289.819 43.6276 289.548 44.2613C289.278 44.8912 288.89 45.3785 288.386 45.7231C287.886 46.064 287.286 46.2345 286.586 46.2345ZM286.586 44.667C286.867 44.667 287.104 44.5633 287.297 44.3558C287.493 44.1445 287.642 43.8425 287.742 43.4498C287.842 43.0533 287.892 42.5734 287.892 42.0101V41.999C287.892 41.4321 287.842 40.9522 287.742 40.5594C287.642 40.1666 287.493 39.8683 287.297 39.6645C287.104 39.457 286.867 39.3533 286.586 39.3533C286.308 39.3533 286.07 39.457 285.874 39.6645C285.681 39.8683 285.533 40.1666 285.429 40.5594C285.329 40.9522 285.279 41.4321 285.279 41.999V42.0101C285.279 42.5734 285.329 43.0533 285.429 43.4498C285.533 43.8425 285.681 44.1445 285.874 44.3558C286.07 44.5633 286.308 44.667 286.586 44.667ZM294.712 46.2345C294.015 46.2345 293.415 46.064 292.911 45.7231C292.407 45.3785 292.018 44.8912 291.744 44.2613C291.473 43.6276 291.338 42.8772 291.338 42.0101V41.999C291.338 41.1319 291.473 40.3834 291.744 39.7535C292.018 39.1235 292.407 38.6381 292.911 38.2972C293.415 37.9526 294.015 37.7803 294.712 37.7803C295.412 37.7803 296.012 37.9526 296.513 38.2972C297.017 38.6381 297.404 39.1235 297.674 39.7535C297.945 40.3834 298.08 41.1319 298.08 41.999V42.0101C298.08 42.8772 297.945 43.6276 297.674 44.2613C297.404 44.8912 297.017 45.3785 296.513 45.7231C296.012 46.064 295.412 46.2345 294.712 46.2345ZM294.712 44.667C294.993 44.667 295.231 44.5633 295.423 44.3558C295.62 44.1445 295.768 43.8425 295.868 43.4498C295.968 43.0533 296.018 42.5734 296.018 42.0101V41.999C296.018 41.4321 295.968 40.9522 295.868 40.5594C295.768 40.1666 295.62 39.8683 295.423 39.6645C295.231 39.457 294.993 39.3533 294.712 39.3533C294.434 39.3533 294.197 39.457 294 39.6645C293.808 39.8683 293.659 40.1666 293.556 40.5594C293.456 40.9522 293.406 41.4321 293.406 41.999V42.0101C293.406 42.5734 293.456 43.0533 293.556 43.4498C293.659 43.8425 293.808 44.1445 294 44.3558C294.197 44.5633 294.434 44.667 294.712 44.667ZM300.254 46.2011C299.924 46.2011 299.655 46.0992 299.448 45.8954C299.24 45.6879 299.136 45.4248 299.136 45.1061C299.136 44.7912 299.24 44.5318 299.448 44.328C299.655 44.1205 299.924 44.0167 300.254 44.0167C300.587 44.0167 300.856 44.1205 301.059 44.328C301.263 44.5318 301.365 44.7912 301.365 45.1061C301.365 45.4248 301.263 45.6879 301.059 45.8954C300.856 46.0992 300.587 46.2011 300.254 46.2011ZM305.884 46.2345C305.187 46.2345 304.587 46.064 304.083 45.7231C303.579 45.3785 303.19 44.8912 302.916 44.2613C302.645 43.6276 302.51 42.8772 302.51 42.0101V41.999C302.51 41.1319 302.645 40.3834 302.916 39.7535C303.19 39.1235 303.579 38.6381 304.083 38.2972C304.587 37.9526 305.187 37.7803 305.884 37.7803C306.584 37.7803 307.185 37.9526 307.685 38.2972C308.189 38.6381 308.576 39.1235 308.847 39.7535C309.117 40.3834 309.252 41.1319 309.252 41.999V42.0101C309.252 42.8772 309.117 43.6276 308.847 44.2613C308.576 44.8912 308.189 45.3785 307.685 45.7231C307.185 46.064 306.584 46.2345 305.884 46.2345ZM305.884 44.667C306.166 44.667 306.403 44.5633 306.596 44.3558C306.792 44.1445 306.94 43.8425 307.04 43.4498C307.14 43.0533 307.19 42.5734 307.19 42.0101V41.999C307.19 41.4321 307.14 40.9522 307.04 40.5594C306.94 40.1666 306.792 39.8683 306.596 39.6645C306.403 39.457 306.166 39.3533 305.884 39.3533C305.606 39.3533 305.369 39.457 305.173 39.6645C304.98 39.8683 304.832 40.1666 304.728 40.5594C304.628 40.9522 304.578 41.4321 304.578 41.999V42.0101C304.578 42.5734 304.628 43.0533 304.728 43.4498C304.832 43.8425 304.98 44.1445 305.173 44.3558C305.369 44.5633 305.606 44.667 305.884 44.667ZM314.01 46.2345C313.314 46.2345 312.713 46.064 312.209 45.7231C311.706 45.3785 311.316 44.8912 311.042 44.2613C310.772 43.6276 310.636 42.8772 310.636 42.0101V41.999C310.636 41.1319 310.772 40.3834 311.042 39.7535C311.316 39.1235 311.706 38.6381 312.209 38.2972C312.713 37.9526 313.314 37.7803 314.01 37.7803C314.711 37.7803 315.311 37.9526 315.811 38.2972C316.315 38.6381 316.702 39.1235 316.973 39.7535C317.243 40.3834 317.379 41.1319 317.379 41.999V42.0101C317.379 42.8772 317.243 43.6276 316.973 44.2613C316.702 44.8912 316.315 45.3785 315.811 45.7231C315.311 46.064 314.711 46.2345 314.01 46.2345ZM314.01 44.667C314.292 44.667 314.529 44.5633 314.722 44.3558C314.918 44.1445 315.066 43.8425 315.166 43.4498C315.267 43.0533 315.317 42.5734 315.317 42.0101V41.999C315.317 41.4321 315.267 40.9522 315.166 40.5594C315.066 40.1666 314.918 39.8683 314.722 39.6645C314.529 39.457 314.292 39.3533 314.01 39.3533C313.732 39.3533 313.495 39.457 313.299 39.6645C313.106 39.8683 312.958 40.1666 312.854 40.5594C312.754 40.9522 312.704 41.4321 312.704 41.999V42.0101C312.704 42.5734 312.754 43.0533 312.854 43.4498C312.958 43.8425 313.106 44.1445 313.299 44.3558C313.495 44.5633 313.732 44.667 314.01 44.667ZM322.137 46.2345C321.44 46.2345 320.84 46.064 320.336 45.7231C319.832 45.3785 319.443 44.8912 319.169 44.2613C318.898 43.6276 318.763 42.8772 318.763 42.0101V41.999C318.763 41.1319 318.898 40.3834 319.169 39.7535C319.443 39.1235 319.832 38.6381 320.336 38.2972C320.84 37.9526 321.44 37.7803 322.137 37.7803C322.837 37.7803 323.437 37.9526 323.938 38.2972C324.442 38.6381 324.829 39.1235 325.099 39.7535C325.37 40.3834 325.505 41.1319 325.505 41.999V42.0101C325.505 42.8772 325.37 43.6276 325.099 44.2613C324.829 44.8912 324.442 45.3785 323.938 45.7231C323.437 46.064 322.837 46.2345 322.137 46.2345ZM322.137 44.667C322.418 44.667 322.655 44.5633 322.848 44.3558C323.045 44.1445 323.193 43.8425 323.293 43.4498C323.393 43.0533 323.443 42.5734 323.443 42.0101V41.999C323.443 41.4321 323.393 40.9522 323.293 40.5594C323.193 40.1666 323.045 39.8683 322.848 39.6645C322.655 39.457 322.418 39.3533 322.137 39.3533C321.859 39.3533 321.622 39.457 321.425 39.6645C321.232 39.8683 321.084 40.1666 320.981 40.5594C320.88 40.9522 320.83 41.4321 320.83 41.999V42.0101C320.83 42.5734 320.88 43.0533 320.981 43.4498C321.084 43.8425 321.232 44.1445 321.425 44.3558C321.622 44.5633 321.859 44.667 322.137 44.667Z" fill="#BB9852"/>
<path d="M17.9819 47.7419V36.513H22.6976C23.8182 36.513 24.7675 36.7283 25.5457 37.1589C26.3291 37.5843 26.9257 38.2068 27.3355 39.0265C27.7453 39.8462 27.9502 40.8396 27.9502 42.0069V42.0224C27.9502 43.2467 27.7479 44.2869 27.3433 45.1429C26.9386 45.9937 26.3446 46.6395 25.5613 47.0805C24.7831 47.5215 23.8286 47.7419 22.6976 47.7419H17.9819ZM20.8378 45.4464H22.184C22.8014 45.4464 23.3202 45.3193 23.7404 45.0651C24.1658 44.8109 24.4874 44.4347 24.7053 43.9367C24.9284 43.4335 25.0399 42.8136 25.0399 42.0769V42.0613C25.0399 41.3662 24.9258 40.7774 24.6975 40.2949C24.4744 39.8072 24.1476 39.4389 23.717 39.1899C23.2916 38.9357 22.7806 38.8086 22.184 38.8086H20.8378V45.4464ZM29.8256 47.7419V39.081H32.5881V47.7419H29.8256ZM31.2108 37.9293C30.8113 37.9293 30.4663 37.7892 30.1758 37.5091C29.8905 37.2289 29.7478 36.8891 29.7478 36.4897C29.7478 36.0902 29.8905 35.7504 30.1758 35.4703C30.4663 35.1901 30.8113 35.0501 31.2108 35.0501C31.6154 35.0501 31.9604 35.1901 32.2457 35.4703C32.5311 35.7504 32.6737 36.0902 32.6737 36.4897C32.6737 36.8891 32.5311 37.2289 32.2457 37.5091C31.9604 37.7892 31.6154 37.9293 31.2108 37.9293ZM38.4244 47.9443C37.5684 47.9443 36.8473 47.8301 36.2611 47.6019C35.6748 47.3736 35.2209 47.0598 34.8993 46.6603C34.5828 46.2608 34.3961 45.8095 34.339 45.3063V45.2596H37.0237L37.0392 45.3063C37.1222 45.5242 37.2753 45.7083 37.4983 45.8588C37.7214 46.0092 38.0327 46.0844 38.4321 46.0844C38.6812 46.0844 38.8965 46.0533 39.078 45.9911C39.2596 45.9288 39.3997 45.8432 39.4982 45.7343C39.5968 45.6201 39.6461 45.4853 39.6461 45.3296V45.3218C39.6461 45.1195 39.5631 44.9561 39.3971 44.8316C39.2363 44.7071 38.9587 44.6059 38.5644 44.5281L37.0704 44.2246C36.5153 44.1105 36.0484 43.9393 35.6697 43.711C35.2961 43.4828 35.0134 43.2 34.8215 42.8628C34.6347 42.5204 34.5413 42.1314 34.5413 41.6956V41.6878C34.5413 41.1068 34.6969 40.6088 35.0082 40.1937C35.3195 39.7735 35.7604 39.4493 36.3311 39.221C36.9018 38.9928 37.5736 38.8786 38.3465 38.8786C39.1818 38.8786 39.8795 39.0031 40.4398 39.2522C41.0053 39.496 41.4307 39.8176 41.716 40.2171C42.0013 40.6113 42.1518 41.0419 42.1673 41.5088V41.5477H39.6383L39.6227 41.4933C39.5761 41.3117 39.4464 41.1405 39.2337 40.9797C39.021 40.8137 38.7253 40.7307 38.3465 40.7307C38.1235 40.7307 37.9237 40.7618 37.7474 40.824C37.5762 40.8863 37.4413 40.9745 37.3427 41.0886C37.2493 41.2028 37.2026 41.3402 37.2026 41.5011V41.5166C37.2026 41.6463 37.2364 41.7604 37.3038 41.859C37.3712 41.9524 37.4828 42.0354 37.6384 42.108C37.7992 42.1755 38.0171 42.2377 38.2921 42.2948L39.7862 42.5983C40.6836 42.7798 41.3425 43.0626 41.7627 43.4465C42.1829 43.8252 42.393 44.3388 42.393 44.9872V44.995C42.393 45.5916 42.2244 46.113 41.8872 46.5591C41.5552 47.0001 41.0909 47.3425 40.4943 47.5863C39.8977 47.8249 39.2077 47.9443 38.4244 47.9443ZM44.2139 47.7419V35.8282H46.9764V47.7419H44.2139ZM49.6611 47.7419L47.3811 44.2324L49.4432 42.606L52.8671 47.7419H49.6611ZM46.8286 45.2051L46.743 42.3181H47.1243L49.5755 39.081H52.657L49.3809 43.0029L47.6845 44.2246L46.8286 45.2051ZM57.6529 47.9443C56.7346 47.9443 55.9435 47.7653 55.2794 47.4073C54.6206 47.0442 54.1148 46.5254 53.762 45.851C53.4144 45.1714 53.2407 44.3595 53.2407 43.4153V43.3998C53.2407 42.466 53.4196 41.6619 53.7776 40.9875C54.1355 40.3131 54.6439 39.7943 55.3028 39.4311C55.9616 39.0628 56.745 38.8786 57.6529 38.8786C58.5659 38.8786 59.3518 39.0602 60.0107 39.4233C60.6747 39.7865 61.1831 40.3053 61.5359 40.9797C61.8939 41.6541 62.0728 42.4608 62.0728 43.3998V43.4153C62.0728 44.3595 61.8965 45.1714 61.5437 45.851C61.1961 46.5254 60.6929 47.0442 60.034 47.4073C59.3752 47.7653 58.5815 47.9443 57.6529 47.9443ZM57.6529 45.851C57.9901 45.851 58.2754 45.755 58.5088 45.5631C58.7475 45.3659 58.929 45.0858 59.0536 44.7227C59.1781 44.3595 59.2403 43.9237 59.2403 43.4153V43.3998C59.2403 42.8966 59.1755 42.466 59.0458 42.108C58.9213 41.7449 58.7423 41.4647 58.5088 41.2676C58.2754 41.0705 57.9901 40.9719 57.6529 40.9719C57.326 40.9719 57.0433 41.0705 56.8047 41.2676C56.566 41.4647 56.3818 41.7449 56.2522 42.108C56.1276 42.466 56.0654 42.8966 56.0654 43.3998V43.4153C56.0654 43.9289 56.1276 44.3673 56.2522 44.7304C56.3767 45.0936 56.5582 45.3711 56.7969 45.5631C57.0355 45.755 57.3208 45.851 57.6529 45.851ZM63.777 47.7419V39.081H66.5395V40.435H66.6874C66.8793 39.9629 67.1854 39.5868 67.6056 39.3066C68.031 39.0213 68.5498 38.8786 69.1619 38.8786C70.1217 38.8786 70.848 39.164 71.3408 39.7346C71.8388 40.3001 72.0878 41.1042 72.0878 42.1469V47.7419H69.3253V42.7617C69.3253 42.2377 69.2138 41.8357 68.9907 41.5555C68.7728 41.2702 68.4305 41.1275 67.9636 41.1275C67.6678 41.1275 67.4136 41.1976 67.2009 41.3376C66.9882 41.4777 66.8248 41.6722 66.7107 41.9213C66.5966 42.1703 66.5395 42.4608 66.5395 42.7928V47.7419H63.777ZM79.7372 47.7419V45.7265H82.8888C83.4802 45.7265 83.9315 45.602 84.2428 45.353C84.5592 45.0988 84.7175 44.7356 84.7175 44.2635V44.248C84.7175 43.9367 84.6448 43.6773 84.4996 43.4698C84.3595 43.2571 84.152 43.0963 83.8771 42.9873C83.6021 42.8784 83.2675 42.8239 82.8732 42.8239H79.7372V41.0886H82.6709C83.1897 41.0886 83.5943 40.9771 83.8848 40.754C84.1753 40.5257 84.3206 40.2145 84.3206 39.8202V39.8046C84.3206 39.4104 84.1857 39.0991 83.916 38.8708C83.6462 38.6426 83.2701 38.5285 82.7876 38.5285H79.7372V36.513H83.5424C84.2947 36.513 84.9354 36.6245 85.4645 36.8476C85.9937 37.0707 86.3983 37.3923 86.6784 37.8125C86.9638 38.2276 87.1064 38.7256 87.1064 39.3066V39.3222C87.1064 39.7216 87.0131 40.0926 86.8263 40.435C86.6447 40.7774 86.3983 41.0601 86.087 41.2832C85.7758 41.5062 85.4204 41.6463 85.021 41.7034V41.8512C85.5086 41.8772 85.9496 42.012 86.3438 42.2559C86.7381 42.4945 87.0494 42.8084 87.2776 43.1975C87.5111 43.5865 87.6278 44.0197 87.6278 44.497V44.5126C87.6278 45.1662 87.467 45.7369 87.1453 46.2245C86.8237 46.707 86.3698 47.0805 85.7836 47.3451C85.1973 47.6097 84.5048 47.7419 83.7059 47.7419H79.7372ZM78.3054 47.7419V36.513H81.1613V47.7419H78.3054ZM92.2501 47.9443C91.612 47.9443 91.0751 47.8172 90.6393 47.563C90.2087 47.3088 89.8819 46.9378 89.6588 46.4502C89.4409 45.9573 89.332 45.3659 89.332 44.676V39.081H92.0945V44.0612C92.0945 44.5852 92.2008 44.9898 92.4135 45.2752C92.6314 45.5553 92.9738 45.6954 93.4407 45.6954C93.6742 45.6954 93.8791 45.6565 94.0555 45.5786C94.237 45.4956 94.3875 45.3815 94.5068 45.2362C94.6313 45.0858 94.7247 44.9094 94.7869 44.7071C94.8492 44.4996 94.8803 44.2713 94.8803 44.0223V39.081H97.6428V47.7419H94.8803V46.3879H94.7325C94.608 46.7044 94.429 46.9793 94.1955 47.2128C93.9621 47.4462 93.6819 47.6252 93.3551 47.7497C93.0283 47.8794 92.66 47.9443 92.2501 47.9443ZM99.775 47.7419V39.081H102.537V40.435H102.685C102.877 39.9629 103.183 39.5868 103.604 39.3066C104.029 39.0213 104.548 38.8786 105.16 38.8786C106.12 38.8786 106.846 39.164 107.339 39.7346C107.837 40.3001 108.086 41.1042 108.086 42.1469V47.7419H105.323V42.7617C105.323 42.2377 105.212 41.8357 104.989 41.5555C104.771 41.2702 104.428 41.1275 103.962 41.1275C103.666 41.1275 103.412 41.1976 103.199 41.3376C102.986 41.4777 102.823 41.6722 102.709 41.9213C102.595 42.1703 102.537 42.4608 102.537 42.7928V47.7419H99.775ZM114.093 50.7846C113.242 50.7846 112.519 50.6782 111.922 50.4655C111.326 50.2528 110.861 49.9545 110.529 49.5706C110.197 49.1867 110 48.7458 109.938 48.2478V48.1933H112.63L112.646 48.24C112.703 48.4475 112.856 48.6161 113.105 48.7458C113.359 48.8755 113.715 48.9403 114.171 48.9403C114.7 48.9403 115.11 48.821 115.401 48.5824C115.691 48.3489 115.836 48.0143 115.836 47.5785V46.0378H115.688C115.543 46.3335 115.349 46.5851 115.105 46.7926C114.861 46.9949 114.576 47.1479 114.249 47.2517C113.922 47.3503 113.556 47.3996 113.152 47.3996C112.441 47.3996 111.826 47.2284 111.307 46.886C110.789 46.5384 110.389 46.0559 110.109 45.4386C109.829 44.816 109.689 44.0898 109.689 43.2597V43.2441C109.689 42.3778 109.829 41.623 110.109 40.9797C110.389 40.3364 110.791 39.8384 111.315 39.4856C111.839 39.1276 112.467 38.9487 113.198 38.9487C113.593 38.9487 113.953 39.0109 114.28 39.1354C114.607 39.2547 114.892 39.4285 115.136 39.6568C115.38 39.8851 115.574 40.1626 115.72 40.4894H115.829V39.081H118.591V47.3996C118.591 48.0947 118.407 48.6939 118.039 49.1971C117.675 49.7055 117.157 50.0972 116.482 50.3721C115.813 50.6471 115.017 50.7846 114.093 50.7846ZM114.171 45.3685C114.524 45.3685 114.825 45.2803 115.074 45.104C115.328 44.9276 115.52 44.6812 115.65 44.3647C115.784 44.0482 115.852 43.6799 115.852 43.2597V43.2441C115.852 42.8187 115.784 42.4478 115.65 42.1314C115.52 41.8149 115.328 41.5711 115.074 41.3999C114.825 41.2235 114.524 41.1353 114.171 41.1353C113.823 41.1353 113.525 41.2235 113.276 41.3999C113.032 41.5711 112.843 41.8149 112.708 42.1314C112.578 42.4426 112.514 42.811 112.514 43.2364V43.2519C112.514 43.6773 112.578 44.0482 112.708 44.3647C112.843 44.6812 113.032 44.9276 113.276 45.104C113.525 45.2803 113.823 45.3685 114.171 45.3685ZM123.097 47.8742C122.547 47.8742 122.062 47.7653 121.641 47.5474C121.221 47.3295 120.892 47.026 120.653 46.6369C120.42 46.2427 120.303 45.7836 120.303 45.2596V45.244C120.303 44.7201 120.435 44.2713 120.7 43.8978C120.97 43.5191 121.361 43.2234 121.875 43.0107C122.394 42.798 123.024 42.6683 123.766 42.6216L127.011 42.4271V43.9756L124.202 44.1546C123.797 44.1805 123.488 44.2713 123.276 44.427C123.063 44.5826 122.957 44.7901 122.957 45.0495V45.0651C122.957 45.3348 123.063 45.5501 123.276 45.7109C123.488 45.8718 123.768 45.9522 124.116 45.9522C124.407 45.9522 124.666 45.8951 124.894 45.781C125.128 45.6616 125.312 45.5034 125.447 45.3063C125.587 45.104 125.657 44.8783 125.657 44.6293V41.8357C125.657 41.54 125.55 41.3117 125.338 41.1509C125.13 40.9849 124.837 40.9019 124.458 40.9019C124.095 40.9019 123.802 40.9615 123.579 41.0808C123.361 41.2002 123.211 41.3662 123.128 41.5789L123.112 41.6178H120.614L120.622 41.5244C120.674 40.9901 120.866 40.5257 121.198 40.1315C121.535 39.7372 121.994 39.4311 122.575 39.2132C123.156 38.9902 123.836 38.8786 124.614 38.8786C125.418 38.8786 126.098 38.9954 126.653 39.2288C127.213 39.4623 127.639 39.7995 127.929 40.2404C128.22 40.6814 128.365 41.2131 128.365 41.8357V47.7419H125.657V46.6681H125.509C125.379 46.9119 125.195 47.1246 124.956 47.3062C124.723 47.4877 124.445 47.6278 124.124 47.7264C123.807 47.8249 123.465 47.8742 123.097 47.8742ZM134.886 47.7419L139.547 38.8553V38.7074H134.053V36.5052H142.411V38.723L137.882 47.7419H134.886ZM148.714 48.0454C147.858 48.0454 147.113 47.895 146.481 47.5941C145.848 47.2932 145.35 46.8886 144.986 46.3802C144.623 45.8666 144.424 45.2907 144.387 44.6526L144.379 44.5281H146.932L146.947 44.5748C147.01 44.8083 147.121 45.021 147.282 45.2129C147.443 45.3997 147.645 45.5501 147.889 45.6642C148.133 45.7732 148.408 45.8277 148.714 45.8277C149.067 45.8277 149.378 45.7524 149.648 45.602C149.917 45.4515 150.128 45.2414 150.278 44.9717C150.434 44.7019 150.511 44.3958 150.511 44.0534V44.0379C150.511 43.6903 150.434 43.3868 150.278 43.1274C150.128 42.868 149.915 42.6631 149.64 42.5127C149.37 42.3622 149.061 42.287 148.714 42.287C148.48 42.287 148.265 42.3207 148.068 42.3882C147.871 42.4504 147.692 42.5438 147.531 42.6683C147.417 42.7461 147.313 42.8369 147.22 42.9407C147.132 43.0444 147.056 43.1534 146.994 43.2675H144.558L145.041 36.513H152.472V38.7152H147.251L147.033 41.5944H147.181C147.321 41.3402 147.508 41.1197 147.741 40.933C147.975 40.7462 148.247 40.601 148.558 40.4972C148.869 40.3883 149.207 40.3338 149.57 40.3338C150.27 40.3338 150.89 40.492 151.43 40.8085C151.969 41.1249 152.392 41.5555 152.698 42.1002C153.009 42.645 153.165 43.2727 153.165 43.9834V43.999C153.165 44.8031 152.978 45.5112 152.605 46.1234C152.231 46.7303 151.71 47.2024 151.041 47.5396C150.371 47.8768 149.596 48.0454 148.714 48.0454ZM157.85 42.8006C157.263 42.8006 156.758 42.6709 156.332 42.4115C155.907 42.1469 155.577 41.7734 155.344 41.2909C155.116 40.8033 155.001 40.23 155.001 39.5712V39.5634C155.001 38.8994 155.116 38.3261 155.344 37.8437C155.577 37.3612 155.907 36.9903 156.332 36.7309C156.758 36.4715 157.263 36.3418 157.85 36.3418C158.436 36.3418 158.942 36.4715 159.367 36.7309C159.792 36.9903 160.119 37.3612 160.347 37.8437C160.576 38.3261 160.69 38.8994 160.69 39.5634V39.5712C160.69 40.23 160.576 40.8033 160.347 41.2909C160.119 41.7734 159.792 42.1469 159.367 42.4115C158.942 42.6709 158.436 42.8006 157.85 42.8006ZM157.85 41.3843C158.166 41.3843 158.407 41.2287 158.573 40.9174C158.739 40.6062 158.822 40.1574 158.822 39.5712V39.5634C158.822 38.972 158.739 38.5233 158.573 38.2172C158.407 37.9111 158.166 37.7581 157.85 37.7581C157.538 37.7581 157.297 37.9111 157.126 38.2172C156.955 38.5233 156.869 38.972 156.869 39.5634V39.5712C156.869 40.1574 156.955 40.6062 157.126 40.9174C157.297 41.2287 157.538 41.3843 157.85 41.3843ZM160.044 47.7419H157.958L165.476 36.513H167.561L160.044 47.7419ZM167.67 47.9131C167.089 47.9131 166.583 47.7834 166.153 47.5241C165.727 47.2595 165.4 46.886 165.172 46.4035C164.944 45.921 164.83 45.3478 164.83 44.6838V44.676C164.83 44.0119 164.944 43.4387 165.172 42.9562C165.4 42.4738 165.727 42.1028 166.153 41.8434C166.583 41.5841 167.089 41.4544 167.67 41.4544C168.261 41.4544 168.767 41.5841 169.187 41.8434C169.613 42.1028 169.94 42.4738 170.168 42.9562C170.396 43.4387 170.51 44.0119 170.51 44.676V44.6838C170.51 45.3478 170.396 45.921 170.168 46.4035C169.94 46.886 169.613 47.2595 169.187 47.5241C168.767 47.7834 168.261 47.9131 167.67 47.9131ZM167.67 46.4969C167.986 46.4969 168.228 46.3412 168.394 46.03C168.565 45.7187 168.65 45.27 168.65 44.6838V44.676C168.65 44.0846 168.565 43.6358 168.394 43.3297C168.228 43.0237 167.986 42.8706 167.67 42.8706C167.359 42.8706 167.117 43.0237 166.946 43.3297C166.78 43.6358 166.697 44.0846 166.697 44.676V44.6838C166.697 45.27 166.78 45.7187 166.946 46.03C167.117 46.3412 167.359 46.4969 167.67 46.4969Z" fill="#A8792E"/>
<circle cx="330.755" cy="16.6116" r="10.3007" transform="rotate(34.7233 330.755 16.6116)" fill="#FEF5DD" stroke="#FDE0AD" stroke-width="2.47216"/>
<path d="M322.259 16.0851L326.889 9.40401L329.792 11.4159C330.342 11.7966 330.742 12.2044 330.994 12.6392C331.248 13.0761 331.358 13.5271 331.324 13.9921C331.292 14.4541 331.116 14.915 330.797 15.3749L330.791 15.3842C330.509 15.7916 330.15 16.0982 329.715 16.3039C329.28 16.5096 328.825 16.5665 328.349 16.4746L327.889 19.9869L325.982 18.6649L326.455 15.5388C326.443 15.5303 326.429 15.5206 326.413 15.5099C326.401 15.5014 326.389 15.4928 326.376 15.4843L325.575 14.9292L323.958 17.2627L322.259 16.0851ZM326.384 13.7624L327.398 14.4651C327.704 14.6769 328.003 14.7589 328.297 14.711C328.59 14.6632 328.838 14.4942 329.039 14.2041L329.045 14.1948C329.24 13.9139 329.308 13.625 329.248 13.3281C329.191 13.0281 329.01 12.7722 328.704 12.5604L327.7 11.8641L326.384 13.7624ZM331.262 19.432L332.154 18.1449L333.77 19.2647C334.131 19.515 334.475 19.6186 334.802 19.5756C335.132 19.5346 335.416 19.3413 335.656 18.9956L335.662 18.9864C335.904 18.6376 335.985 18.3031 335.905 17.9829C335.829 17.6648 335.61 17.3806 335.249 17.1303L333.633 16.0105L334.538 14.7048L336.566 16.1103C337.063 16.4547 337.426 16.8529 337.657 17.305C337.889 17.754 337.983 18.2255 337.938 18.7196C337.898 19.2126 337.712 19.6984 337.38 20.1768L337.374 20.1861C337.044 20.6614 336.655 21.006 336.205 21.2197C335.76 21.4326 335.287 21.5089 334.785 21.4488C334.285 21.3857 333.787 21.1819 333.29 20.8375L331.262 19.432ZM329.056 20.7955L333.686 14.1144L335.385 15.292L330.755 21.9731L329.056 20.7955Z" fill="#FED285"/>
</g>
</svg>
